{
    "asset" : {
        "generator" : "Khronos glTF Blender I/O v3.4.50",
        "version" : "2.0"
    },
    "scene" : 0,
    "scenes" : [
        {
            "name" : "Scene",
            "nodes" : [
                0
            ]
        }
    ],
    "nodes" : [
        {
            "mesh" : 0,
            "name" : "PC"
        }
    ],
    "materials" : [
        {
            "doubleSided" : true,
            "name" : "pc_main",
            "pbrMetallicRoughness" : {
                "baseColorFactor" : [
                    0.0522179938852787,
                    0.0522179938852787,
                    0.0522179938852787,
                    1
                ],
                "metallicFactor" : 0,
                "roughnessFactor" : 1
            }
        },
        {
            "doubleSided" : true,
            "name" : "pc_secondary",
            "pbrMetallicRoughness" : {
                "baseColorFactor" : [
                    0.800000011920929,
                    0.800000011920929,
                    0.800000011920929,
                    1
                ],
                "metallicFactor" : 0,
                "roughnessFactor" : 0.4000000059604645
            }
        },
        {
            "doubleSided" : true,
            "name" : "keyboard_keys",
            "pbrMetallicRoughness" : {
                "baseColorFactor" : [
                    0.057802487164735794,
                    0.057802487164735794,
                    0.057802487164735794,
                    1
                ],
                "metallicFactor" : 0,
                "roughnessFactor" : 0.4000000059604645
            }
        },
        {
            "doubleSided" : true,
            "name" : "screen",
            "pbrMetallicRoughness" : {
                "baseColorFactor" : [
                    0.827556848526001,
                    0.827556848526001,
                    0.827556848526001,
                    1
                ],
                "metallicFactor" : 0,
                "roughnessFactor" : 0.4000000059604645
            }
        }
    ],
    "meshes" : [
        {
            "name" : "pc",
            "primitives" : [
                {
                    "attributes" : {
                        "POSITION" : 0,
                        "TEXCOORD_0" : 1,
                        "NORMAL" : 2
                    },
                    "indices" : 3,
                    "material" : 0
                },
                {
                    "attributes" : {
                        "POSITION" : 4,
                        "TEXCOORD_0" : 5,
                        "NORMAL" : 6
                    },
                    "indices" : 7,
                    "material" : 1
                },
                {
                    "attributes" : {
                        "POSITION" : 8,
                        "TEXCOORD_0" : 9,
                        "NORMAL" : 10
                    },
                    "indices" : 11,
                    "material" : 2
                },
                {
                    "attributes" : {
                        "POSITION" : 12,
                        "TEXCOORD_0" : 13,
                        "NORMAL" : 14
                    },
                    "indices" : 15,
                    "material" : 3
                }
            ]
        }
    ],
    "accessors" : [
        {
            "bufferView" : 0,
            "componentType" : 5126,
            "count" : 770,
            "max" : [
                2.159801721572876,
                5.298501491546631,
                1.2416387796401978
            ],
            "min" : [
                -1.9127342700958252,
                0.6905280351638794,
                -2.125370502471924
            ],
            "type" : "VEC3"
        },
        {
            "bufferView" : 1,
            "componentType" : 5126,
            "count" : 770,
            "type" : "VEC2"
        },
        {
            "bufferView" : 2,
            "componentType" : 5126,
            "count" : 770,
            "type" : "VEC3"
        },
        {
            "bufferView" : 3,
            "componentType" : 5123,
            "count" : 1296,
            "type" : "SCALAR"
        },
        {
            "bufferView" : 4,
            "componentType" : 5126,
            "count" : 107,
            "max" : [
                1.6630537509918213,
                1.5397095680236816,
                -0.00923168659210205
            ],
            "min" : [
                0.9869461059570312,
                0.6905280351638794,
                -0.08759257942438126
            ],
            "type" : "VEC3"
        },
        {
            "bufferView" : 5,
            "componentType" : 5126,
            "count" : 107,
            "type" : "VEC2"
        },
        {
            "bufferView" : 6,
            "componentType" : 5126,
            "count" : 107,
            "type" : "VEC3"
        },
        {
            "bufferView" : 7,
            "componentType" : 5123,
            "count" : 156,
            "type" : "SCALAR"
        },
        {
            "bufferView" : 8,
            "componentType" : 5126,
            "count" : 1296,
            "max" : [
                0.2951422929763794,
                2.8451173305511475,
                1.20476233959198
            ],
            "min" : [
                -1.7772654294967651,
                2.748929023742676,
                0.33906757831573486
            ],
            "type" : "VEC3"
        },
        {
            "bufferView" : 9,
            "componentType" : 5126,
            "count" : 1296,
            "type" : "VEC2"
        },
        {
            "bufferView" : 10,
            "componentType" : 5126,
            "count" : 1296,
            "type" : "VEC3"
        },
        {
            "bufferView" : 11,
            "componentType" : 5123,
            "count" : 1944,
            "type" : "SCALAR"
        },
        {
            "bufferView" : 12,
            "componentType" : 5126,
            "count" : 8,
            "max" : [
                2.0549585819244385,
                5.220214366912842,
                -1.0332612991333008
            ],
            "min" : [
                -1.7375767230987549,
                3.3767881393432617,
                -1.4282461404800415
            ],
            "type" : "VEC3"
        },
        {
            "bufferView" : 13,
            "componentType" : 5126,
            "count" : 8,
            "type" : "VEC2"
        },
        {
            "bufferView" : 14,
            "componentType" : 5126,
            "count" : 8,
            "type" : "VEC3"
        },
        {
            "bufferView" : 15,
            "componentType" : 5123,
            "count" : 12,
            "type" : "SCALAR"
        }
    ],
    "bufferViews" : [
        {
            "buffer" : 0,
            "byteLength" : 9240,
            "byteOffset" : 0,
            "target" : 34962
        },
        {
            "buffer" : 0,
            "byteLength" : 6160,
            "byteOffset" : 9240,
            "target" : 34962
        },
        {
            "buffer" : 0,
            "byteLength" : 9240,
            "byteOffset" : 15400,
            "target" : 34962
        },
        {
            "buffer" : 0,
            "byteLength" : 2592,
            "byteOffset" : 24640,
            "target" : 34963
        },
        {
            "buffer" : 0,
            "byteLength" : 1284,
            "byteOffset" : 27232,
            "target" : 34962
        },
        {
            "buffer" : 0,
            "byteLength" : 856,
            "byteOffset" : 28516,
            "target" : 34962
        },
        {
            "buffer" : 0,
            "byteLength" : 1284,
            "byteOffset" : 29372,
            "target" : 34962
        },
        {
            "buffer" : 0,
            "byteLength" : 312,
            "byteOffset" : 30656,
            "target" : 34963
        },
        {
            "buffer" : 0,
            "byteLength" : 15552,
            "byteOffset" : 30968,
            "target" : 34962
        },
        {
            "buffer" : 0,
            "byteLength" : 10368,
            "byteOffset" : 46520,
            "target" : 34962
        },
        {
            "buffer" : 0,
            "byteLength" : 15552,
            "byteOffset" : 56888,
            "target" : 34962
        },
        {
            "buffer" : 0,
            "byteLength" : 3888,
            "byteOffset" : 72440,
            "target" : 34963
        },
        {
            "buffer" : 0,
            "byteLength" : 96,
            "byteOffset" : 76328,
            "target" : 34962
        },
        {
            "buffer" : 0,
            "byteLength" : 64,
            "byteOffset" : 76424,
            "target" : 34962
        },
        {
            "buffer" : 0,
            "byteLength" : 96,
            "byteOffset" : 76488,
            "target" : 34962
        },
        {
            "buffer" : 0,
            "byteLength" : 24,
            "byteOffset" : 76584,
            "target" : 34963
        }
    ],
    "buffers" : [
        {
            "byteLength" : 76608,
            "uri" : "data:application/octet-stream;base64,"
        }
    ]
}
