{
    "asset" : {
        "generator" : "Khronos glTF Blender I/O v3.4.50",
        "version" : "2.0"
    },
    "scene" : 0,
    "scenes" : [
        {
            "name" : "Scene",
            "nodes" : [
                0
            ]
        }
    ],
    "nodes" : [
        {
            "mesh" : 0,
            "name" : "Bureau"
        }
    ],
    "materials" : [
        {
            "doubleSided" : true,
            "name" : "Porte_Clavier",
            "pbrMetallicRoughness" : {
                "baseColorFactor" : [
                    0.7991020679473877,
                    0.799102246761322,
                    0.7991029620170593,
                    1
                ],
                "metallicFactor" : 0,
                "roughnessFactor" : 1
            }
        },
        {
            "doubleSided" : true,
            "name" : "Bureau_pied",
            "pbrMetallicRoughness" : {
                "baseColorFactor" : [
                    0.07227177172899246,
                    0.07227178663015366,
                    0.07227185368537903,
                    1
                ],
                "metallicFactor" : 0,
                "roughnessFactor" : 1
            }
        },
        {
            "doubleSided" : true,
            "name" : "Bureau",
            "pbrMetallicRoughness" : {
                "baseColorFactor" : [
                    0.799102783203125,
                    0.6074390411376953,
                    0.3056735396385193,
                    1
                ],
                "metallicFactor" : 0,
                "roughnessFactor" : 1
            }
        }
    ],
    "meshes" : [
        {
            "name" : "Bureau",
            "primitives" : [
                {
                    "attributes" : {
                        "POSITION" : 0,
                        "TEXCOORD_0" : 1,
                        "NORMAL" : 2
                    },
                    "indices" : 3,
                    "material" : 0
                },
                {
                    "attributes" : {
                        "POSITION" : 4,
                        "TEXCOORD_0" : 5,
                        "NORMAL" : 6
                    },
                    "indices" : 7,
                    "material" : 1
                },
                {
                    "attributes" : {
                        "POSITION" : 8,
                        "TEXCOORD_0" : 9,
                        "NORMAL" : 10
                    },
                    "indices" : 11,
                    "material" : 2
                }
            ]
        }
    ],
    "accessors" : [
        {
            "bufferView" : 0,
            "componentType" : 5126,
            "count" : 96,
            "max" : [
                0.8184472918510437,
                2.725024461746216,
                1.2834699153900146
            ],
            "min" : [
                -2.172950506210327,
                2.643866777420044,
                -1.499955177307129
            ],
            "type" : "VEC3"
        },
        {
            "bufferView" : 1,
            "componentType" : 5126,
            "count" : 96,
            "type" : "VEC2"
        },
        {
            "bufferView" : 2,
            "componentType" : 5126,
            "count" : 96,
            "type" : "VEC3"
        },
        {
            "bufferView" : 3,
            "componentType" : 5123,
            "count" : 144,
            "type" : "SCALAR"
        },
        {
            "bufferView" : 4,
            "componentType" : 5126,
            "count" : 288,
            "max" : [
                1.8526294231414795,
                0.23165345191955566,
                -0.1379101276397705
            ],
            "min" : [
                -2.205735206604004,
                -0.00051116943359375,
                -1.5501443147659302
            ],
            "type" : "VEC3"
        },
        {
            "bufferView" : 5,
            "componentType" : 5126,
            "count" : 288,
            "type" : "VEC2"
        },
        {
            "bufferView" : 6,
            "componentType" : 5126,
            "count" : 288,
            "type" : "VEC3"
        },
        {
            "bufferView" : 7,
            "componentType" : 5123,
            "count" : 432,
            "type" : "SCALAR"
        },
        {
            "bufferView" : 8,
            "componentType" : 5126,
            "count" : 376,
            "max" : [
                2.3234472274780273,
                3.1766905784606934,
                1.3626079559326172
            ],
            "min" : [
                -2.6765527725219727,
                0.19278526306152344,
                -2.2026896476745605
            ],
            "type" : "VEC3"
        },
        {
            "bufferView" : 9,
            "componentType" : 5126,
            "count" : 376,
            "type" : "VEC2"
        },
        {
            "bufferView" : 10,
            "componentType" : 5126,
            "count" : 376,
            "type" : "VEC3"
        },
        {
            "bufferView" : 11,
            "componentType" : 5123,
            "count" : 888,
            "type" : "SCALAR"
        }
    ],
    "bufferViews" : [
        {
            "buffer" : 0,
            "byteLength" : 1152,
            "byteOffset" : 0,
            "target" : 34962
        },
        {
            "buffer" : 0,
            "byteLength" : 768,
            "byteOffset" : 1152,
            "target" : 34962
        },
        {
            "buffer" : 0,
            "byteLength" : 1152,
            "byteOffset" : 1920,
            "target" : 34962
        },
        {
            "buffer" : 0,
            "byteLength" : 288,
            "byteOffset" : 3072,
            "target" : 34963
        },
        {
            "buffer" : 0,
            "byteLength" : 3456,
            "byteOffset" : 3360,
            "target" : 34962
        },
        {
            "buffer" : 0,
            "byteLength" : 2304,
            "byteOffset" : 6816,
            "target" : 34962
        },
        {
            "buffer" : 0,
            "byteLength" : 3456,
            "byteOffset" : 9120,
            "target" : 34962
        },
        {
            "buffer" : 0,
            "byteLength" : 864,
            "byteOffset" : 12576,
            "target" : 34963
        },
        {
            "buffer" : 0,
            "byteLength" : 4512,
            "byteOffset" : 13440,
            "target" : 34962
        },
        {
            "buffer" : 0,
            "byteLength" : 3008,
            "byteOffset" : 17952,
            "target" : 34962
        },
        {
            "buffer" : 0,
            "byteLength" : 4512,
            "byteOffset" : 20960,
            "target" : 34962
        },
        {
            "buffer" : 0,
            "byteLength" : 1776,
            "byteOffset" : 25472,
            "target" : 34963
        }
    ],
    "buffers" : [
        {
            "byteLength" : 27248,
            "uri" : "data:application/octet-stream;base64,"
        }
    ]
}
